<svg id="visual" viewBox="0 0 760 366" width="760" height="366" xmlns="http://www.w3.org/2000/svg" xmlns:xlink="http://www.w3.org/1999/xlink" version="1.1"><rect x="0" y="0" width="760" height="366" fill="#FFFFFF"></rect><defs><linearGradient id="grad1_0" x1="51.8%" y1="0%" x2="100%" y2="100%"><stop offset="8.469945355191253%" stop-color="#ffffff" stop-opacity="1"></stop><stop offset="91.53005464480874%" stop-color="#ffffff" stop-opacity="1"></stop></linearGradient></defs><defs><linearGradient id="grad2_0" x1="0%" y1="0%" x2="48.2%" y2="100%"><stop offset="8.469945355191253%" stop-color="#ffffff" stop-opacity="1"></stop><stop offset="91.53005464480874%" stop-color="#ffffff" stop-opacity="1"></stop></linearGradient></defs><g transform="translate(760, 0)"><path d="M0 292.8C-33 293.3 -66 293.8 -90.5 278.5C-114.9 263.2 -130.8 232.1 -154 212C-177.2 191.8 -207.7 182.4 -222.5 161.6C-237.2 140.8 -236.3 108.6 -245.4 79.7C-254.5 50.9 -273.6 25.4 -292.8 0L0 0Z" fill="#FBAE3C"></path></g><g transform="translate(0, 366)"><path d="M0 -292.8C28.9 -277.9 57.7 -263 80 -246.3C102.4 -229.7 118.1 -211.3 146.4 -201.4C174.6 -191.6 215.3 -190.4 236.9 -172.1C258.5 -153.8 261.1 -118.4 267.2 -86.8C273.4 -55.3 283.1 -27.6 292.8 0L0 0Z" fill="#FBAE3C"></path></g></svg>