<svg id="visual" viewBox="0 0 760 366" width="760" height="366" xmlns="http://www.w3.org/2000/svg" xmlns:xlink="http://www.w3.org/1999/xlink" version="1.1"><rect x="0" y="0" width="760" height="366" fill="#001220"></rect><defs><linearGradient id="grad1_0" x1="51.8%" y1="0%" x2="100%" y2="100%"><stop offset="8.469945355191253%" stop-color="#001220" stop-opacity="1"></stop><stop offset="91.53005464480874%" stop-color="#001220" stop-opacity="1"></stop></linearGradient></defs><defs><linearGradient id="grad2_0" x1="0%" y1="0%" x2="48.2%" y2="100%"><stop offset="8.469945355191253%" stop-color="#001220" stop-opacity="1"></stop><stop offset="91.53005464480874%" stop-color="#001220" stop-opacity="1"></stop></linearGradient></defs><g transform="translate(760, 0)"><path d="M0 329.4C-36.8 311 -73.6 292.6 -116 279.9C-158.3 267.3 -206.1 260.4 -232.9 232.9C-259.7 205.5 -265.5 157.4 -278.1 115.2C-290.7 72.9 -310 36.5 -329.4 0L0 0Z" fill="#FBAE3C"></path></g><g transform="translate(0, 366)"><path d="M0 -329.4C44.4 -326.9 88.9 -324.4 126.1 -304.3C163.2 -284.3 193.1 -246.6 210 -210C226.9 -173.4 230.8 -137.8 248.5 -102.9C266.3 -68.1 297.8 -34.1 329.4 0L0 0Z" fill="#FBAE3C"></path></g></svg>