<svg id="visual" viewBox="0 0 760 366" width="760" height="366" xmlns="http://www.w3.org/2000/svg" xmlns:xlink="http://www.w3.org/1999/xlink" version="1.1"><rect x="0" y="0" width="760" height="366" fill="#c6f7af"></rect><defs><linearGradient id="grad1_0" x1="51.8%" y1="0%" x2="100%" y2="100%"><stop offset="8.469945355191253%" stop-color="#c6f7af" stop-opacity="1"></stop><stop offset="91.53005464480874%" stop-color="#c6f7af" stop-opacity="1"></stop></linearGradient></defs><defs><linearGradient id="grad2_0" x1="0%" y1="0%" x2="48.2%" y2="100%"><stop offset="8.469945355191253%" stop-color="#c6f7af" stop-opacity="1"></stop><stop offset="91.53005464480874%" stop-color="#c6f7af" stop-opacity="1"></stop></linearGradient></defs><g transform="translate(760, 0)"><path d="M0 311.1C-36.8 299.4 -73.6 287.7 -114 275.3C-154.5 262.9 -198.6 249.8 -220 220C-241.3 190.1 -239.9 143.5 -251.3 104.1C-262.7 64.6 -286.9 32.3 -311.1 0L0 0Z" fill="#89ec5b"></path></g><g transform="translate(0, 366)"><path d="M0 -311.1C44.1 -310.3 88.1 -309.6 119.1 -287.4C150 -265.3 167.8 -221.7 189.5 -189.5C211.2 -157.3 236.8 -136.5 257.8 -106.8C278.7 -77.1 294.9 -38.5 311.1 0L0 0Z" fill="#89ec5b"></path></g></svg>